<svg xmlns="http://www.w3.org/2000/svg" xmlns:xlink="http://www.w3.org/1999/xlink" xmlns:lucid="lucid" width="1843" height="1141.5"><g transform="translate(3862.4999564285713 2401)" lucid:page-tab-id="0_0"><path d="M-2210-1599.5v63.5a6 6 0 0 1-6 6h-227.5a6 6 0 0 0-6 6v64.1" stroke="#3a414a" fill="none"/><path d="M-2220-1599.5h20M-2210-1619.5v20" stroke="#3a414a" fill="#fff"/><path d="M-2459.5-1440.72l10-20 10 20" stroke="#3a414a" fill="#fff" fill-opacity="0"/><path d="M-2449.5-1440.72v-20" stroke="#3a414a" fill="#fff"/><path d="M-3100-2372a8 8 0 0 1 8-8h836.75a8 8 0 0 1 8 8v25.16a8 8 0 0 1-8 8H-3092a8 8 0 0 1-8-8z" stroke="#000" stroke-opacity="0" stroke-width="2" fill="#fff" fill-opacity="0"/><use xlink:href="#a" transform="matrix(1,0,0,1,-3096,-2376) translate(369.14086419753085 25.782777777777778)"/><path d="M-2924.5-2340.2h505.85M-2924.5-2340.2h-1M-2418.68-2340.2h1.03" stroke="#a9afb8" stroke-width="2" fill="none"/><path d="M-3100-2330.84a8 8 0 0 1 8-8h837.7a8 8 0 0 1 8 8v2.84a8 8 0 0 1-8 8H-3092a8 8 0 0 1-8-8z" stroke="#000" stroke-opacity="0" stroke-width="2" fill="#fff" fill-opacity="0"/><use xlink:href="#b" transform="matrix(1,0,0,1,-3096,-2334.844776043101) translate(379.3588683127572 14.917037037037037)"/><use xlink:href="#c" transform="matrix(1,0,0,1,-3096,-2334.844776043101) translate(430.3040329218107 14.917037037037037)"/><use xlink:href="#d" transform="matrix(1,0,0,1,-3096,-2334.844776043101) translate(469.3095884773662 14.917037037037037)"/><path d="M-3420.1-1782.5h8.6a12 12 0 0 0 12-12V-2031a12 12 0 0 1 12-12h325.5a12 12 0 0 1 12 12v8" stroke="#333" fill="none"/><path d="M-3439.28-1792.5l20 10-20 10" stroke="#333" fill="#fff" fill-opacity="0"/><path d="M-3439.28-1782.5h20M-3040-2023h-20M-3050-2003v-20" stroke="#333" fill="#fff"/><path d="M-3840.5-1782.5h-8a12 12 0 0 0-12 12v411a12 12 0 0 0 12 12h268" stroke="#333" fill="none"/><path d="M-3840.5-1792.5v20M-3820.5-1782.5h-20M-3580.5-1357.5v20M-3560.5-1347.5h-20" stroke="#333" fill="#fff"/><path d="M-3820-1935a5 5 0 0 1 5-5h370a5 5 0 0 1 5 5v350a5 5 0 0 1-5 5h-370a5 5 0 0 1-5-5z" fill="#fff"/><path d="M-3820-1895v-40a5 5 0 0 1 5-5h370a5 5 0 0 1 5 5v40" fill="#ced4db"/><path d="M-3820-1935a5 5 0 0 1 5-5h370a5 5 0 0 1 5 5v350a5 5 0 0 1-5 5h-370a5 5 0 0 1-5-5zM-3820-1895h380M-3760-1895v315" stroke="#282c33" fill="none"/><use xlink:href="#e" transform="matrix(1,0,0,1,-3810,-1940) translate(0 28.322222222222223)"/><use xlink:href="#f" transform="matrix(1,0,0,1,-3815,-1892.5) translate(5.592592592592599 25.822222222222223)"/><use xlink:href="#g" transform="matrix(1,0,0,1,-3755,-1892.5) translate(0 25.822222222222223)"/><use xlink:href="#h" transform="matrix(1,0,0,1,-3815,-1847.5) translate(-0.06790123456789487 25.822222222222223)"/><use xlink:href="#i" transform="matrix(1,0,0,1,-3755,-1847.5) translate(0 25.822222222222223)"/><use xlink:href="#h" transform="matrix(1,0,0,1,-3815,-1802.5) translate(-0.06790123456789487 25.822222222222223)"/><use xlink:href="#j" transform="matrix(1,0,0,1,-3755,-1802.5) translate(0 25.822222222222223)"/><use xlink:href="#h" transform="matrix(1,0,0,1,-3815,-1757.5) translate(-0.06790123456789487 25.822222222222223)"/><use xlink:href="#k" transform="matrix(1,0,0,1,-3755,-1757.5) translate(0 25.822222222222223)"/><use xlink:href="#l" transform="matrix(1,0,0,1,-3815,-1712.5) translate(6.4416666666666735 25.822222222222223)"/><use xlink:href="#m" transform="matrix(1,0,0,1,-3755,-1712.5) translate(0 25.822222222222223)"/><use xlink:href="#l" transform="matrix(1,0,0,1,-3815,-1667.5) translate(6.4416666666666735 25.822222222222223)"/><use xlink:href="#n" transform="matrix(1,0,0,1,-3755,-1667.5) translate(0 25.822222222222223)"/><use xlink:href="#l" transform="matrix(1,0,0,1,-3815,-1622.5) translate(6.4416666666666735 25.822222222222223)"/><use xlink:href="#o" transform="matrix(1,0,0,1,-3755,-1622.5) translate(0 25.822222222222223)"/><path d="M-3240-1997.5a5 5 0 0 1 5-5h370a5 5 0 0 1 5 5v125a5 5 0 0 1-5 5h-370a5 5 0 0 1-5-5z" fill="#fff"/><path d="M-3240-1957.5v-40a5 5 0 0 1 5-5h370a5 5 0 0 1 5 5v40" fill="#ced4db"/><path d="M-3240-1997.5a5 5 0 0 1 5-5h370a5 5 0 0 1 5 5v125a5 5 0 0 1-5 5h-370a5 5 0 0 1-5-5zM-3240-1957.5h380M-3180-1957.5v90" stroke="#282c33" fill="none"/><use xlink:href="#p" transform="matrix(1,0,0,1,-3230,-2002.4999999998834) translate(0 28.322222222222223)"/><use xlink:href="#q" transform="matrix(1,0,0,1,-3235,-1954.9999999998834) translate(13 23.6)"/><use xlink:href="#g" transform="matrix(1,0,0,1,-3175,-1954.9999999998834) translate(0 25.822222222222223)"/><use xlink:href="#r" transform="matrix(1,0,0,1,-3235,-1909.9999999998834) translate(9.5 23.6)"/><use xlink:href="#s" transform="matrix(1,0,0,1,-3175,-1909.9999999998834) translate(0 25.822222222222223)"/><path d="M-3560-1455a5 5 0 0 1 5-5h470a5 5 0 0 1 5 5v170a5 5 0 0 1-5 5h-470a5 5 0 0 1-5-5z" fill="#fff"/><path d="M-3560-1415v-40a5 5 0 0 1 5-5h470a5 5 0 0 1 5 5v40" fill="#ced4db"/><path d="M-3560-1455a5 5 0 0 1 5-5h470a5 5 0 0 1 5 5v170a5 5 0 0 1-5 5h-470a5 5 0 0 1-5-5zM-3560-1415h480M-3421.72-1415v135" stroke="#282c33" fill="none"/><use xlink:href="#t" transform="matrix(1,0,0,1,-3550,-1460) translate(0 28.322222222222223)"/><use xlink:href="#u" transform="matrix(1,0,0,1,-3555,-1412.5) translate(0 25.822222222222223)"/><use xlink:href="#g" transform="matrix(1,0,0,1,-3416.7201654241385,-1412.5) translate(0 25.822222222222223)"/><use xlink:href="#v" transform="matrix(1,0,0,1,-3555,-1367.5) translate(0 25.822222222222223)"/><use xlink:href="#w" transform="matrix(1,0,0,1,-3416.7201654241385,-1367.5) translate(0 30.329861111111107)"/><use xlink:href="#x" transform="matrix(1,0,0,1,-3555,-1322.5) translate(0 25.822222222222223)"/><use xlink:href="#y" transform="matrix(1,0,0,1,-3416.7201654241385,-1322.5) translate(0 30.32986111111111)"/><path d="M-2380-1795a5 5 0 0 1 5-5h330a5 5 0 0 1 5 5v170a5 5 0 0 1-5 5h-330a5 5 0 0 1-5-5z" fill="#fff"/><path d="M-2380-1755v-40a5 5 0 0 1 5-5h330a5 5 0 0 1 5 5v40" fill="#cfe4ff"/><path d="M-2380-1795a5 5 0 0 1 5-5h330a5 5 0 0 1 5 5v170a5 5 0 0 1-5 5h-330a5 5 0 0 1-5-5zM-2380-1755h340M-2241.72-1755v135" stroke="#282c33" fill="none"/><use xlink:href="#z" transform="matrix(1,0,0,1,-2370,-1800) translate(0 28.322222222222223)"/><use xlink:href="#u" transform="matrix(1,0,0,1,-2375,-1752.5) translate(0 25.822222222222223)"/><use xlink:href="#g" transform="matrix(1,0,0,1,-2236.7201654241385,-1752.5) translate(0 25.822222222222223)"/><use xlink:href="#A" transform="matrix(1,0,0,1,-2375,-1707.5) translate(0 25.822222222222223)"/><use xlink:href="#B" transform="matrix(1,0,0,1,-2236.7201654241385,-1707.5) translate(0 25.822222222222223)"/><use xlink:href="#A" transform="matrix(1,0,0,1,-2375,-1662.5) translate(0 25.822222222222223)"/><use xlink:href="#C" transform="matrix(1,0,0,1,-2236.7201654241385,-1662.5) translate(0 25.822222222222223)"/><path d="M-3210-1580v-19.4" stroke="#3a414a" fill="none"/><path d="M-3220-1580h20M-3210-1600v20" stroke="#3a414a" fill="#fff"/><path d="M-3220-1580.22l10-20 10 20" stroke="#3a414a" fill="#fff" fill-opacity="0"/><path d="M-3210-1580.22v-20" stroke="#3a414a" fill="#fff"/><path d="M-2620-1435a5 5 0 0 1 5-5h330a5 5 0 0 1 5 5v125a5 5 0 0 1-5 5h-330a5 5 0 0 1-5-5z" fill="#fff"/><path d="M-2620-1395v-40a5 5 0 0 1 5-5h330a5 5 0 0 1 5 5v40" fill="#cfe4ff"/><path d="M-2620-1435a5 5 0 0 1 5-5h330a5 5 0 0 1 5 5v125a5 5 0 0 1-5 5h-330a5 5 0 0 1-5-5zM-2620-1395h340M-2481.72-1395v90" stroke="#282c33" fill="none"/><use xlink:href="#D" transform="matrix(1,0,0,1,-2610,-1440) translate(0 28.322222222222223)"/><use xlink:href="#u" transform="matrix(1,0,0,1,-2615,-1392.5) translate(0 25.822222222222223)"/><use xlink:href="#g" transform="matrix(1,0,0,1,-2476.7201654241385,-1392.5) translate(0 25.822222222222223)"/><use xlink:href="#v" transform="matrix(1,0,0,1,-2615,-1347.5) translate(0 25.822222222222223)"/><g><use xlink:href="#E" transform="matrix(1,0,0,1,-2476.7201654241385,-1347.5) translate(0 25.822222222222223)"/></g><defs><path fill="#a9afb8" d="M67-125c0 53 21 87 73 88 37 1 54-22 65-47l45 17C233-25 199 4 140 4 58 4 20-42 15-125 8-235 124-281 211-232c18 10 29 29 36 50l-46 12c-8-25-30-41-62-41-52 0-71 34-72 86" id="F"/><path fill="#a9afb8" d="M135-150c-39-12-60 13-60 57V0H25l-1-190h47c2 13-1 29 3 40 6-28 27-53 61-41v41" id="G"/><path fill="#a9afb8" d="M133-34C117-15 103 5 69 4 32 3 11-16 11-54c-1-60 55-63 116-61 1-26-3-47-28-47-18 1-26 9-28 27l-52-2c7-38 36-58 82-57s74 22 75 68l1 82c-1 14 12 18 25 15v27c-30 8-71 5-69-32zm-48 3c29 0 43-24 42-57-32 0-66-3-65 30 0 17 8 27 23 27" id="H"/><path fill="#a9afb8" d="M25-224v-37h50v37H25zM25 0v-190h50V0H25" id="I"/><path fill="#a9afb8" d="M195-6C206 82 75 100 31 46c-4-6-6-13-8-21l49-6c3 16 16 24 34 25 40 0 42-37 40-79-11 22-30 35-61 35-53 0-70-43-70-97 0-56 18-96 73-97 30 0 46 14 59 34l2-30h47zm-90-29c32 0 41-27 41-63 0-35-9-62-40-62-32 0-39 29-40 63 0 36 9 62 39 62" id="J"/><path fill="#a9afb8" d="M24 0v-248h52v208h133V0H24" id="K"/><path fill="#a9afb8" d="M137-138c1-29-70-34-71-4 15 46 118 7 119 86 1 83-164 76-172 9l43-7c4 19 20 25 44 25 33 8 57-30 24-41C81-84 22-81 20-136c-2-80 154-74 161-7" id="L"/><path fill="#a9afb8" d="M115-3C79 11 28 4 28-45v-112H4v-33h27l15-45h31v45h36v33H77v99c-1 23 16 31 38 25v30" id="M"/><g id="a"><use transform="matrix(0.0728395061728395,0,0,0.0728395061728395,0,0)" xlink:href="#F"/><use transform="matrix(0.0728395061728395,0,0,0.0728395061728395,18.86543209876543,0)" xlink:href="#G"/><use transform="matrix(0.0728395061728395,0,0,0.0728395061728395,29.062962962962963,0)" xlink:href="#H"/><use transform="matrix(0.0728395061728395,0,0,0.0728395061728395,43.63086419753086,0)" xlink:href="#I"/><use transform="matrix(0.0728395061728395,0,0,0.0728395061728395,50.91481481481481,0)" xlink:href="#J"/><use transform="matrix(0.0728395061728395,0,0,0.0728395061728395,66.86666666666666,0)" xlink:href="#K"/><use transform="matrix(0.0728395061728395,0,0,0.0728395061728395,82.81851851851852,0)" xlink:href="#I"/><use transform="matrix(0.0728395061728395,0,0,0.0728395061728395,90.10246913580247,0)" xlink:href="#L"/><use transform="matrix(0.0728395061728395,0,0,0.0728395061728395,104.67037037037036,0)" xlink:href="#M"/></g><path fill="#a9afb8" d="M153-248C145-148 188 4 80 4 36 3 13-21 6-62l32-5c4 25 16 42 43 43 27 0 39-20 39-49v-147H72v-28h81" id="N"/><path fill="#a9afb8" d="M100-194c62-1 85 37 85 99 1 63-27 99-86 99S16-35 15-95c0-66 28-99 85-99zM99-20c44 1 53-31 53-75 0-43-8-75-51-75s-53 32-53 75 10 74 51 75" id="O"/><path fill="#a9afb8" d="M114-163C36-179 61-72 57 0H25l-1-190h30c1 12-1 29 2 39 6-27 23-49 58-41v29" id="P"/><path fill="#a9afb8" d="M85-194c31 0 48 13 60 33l-1-100h32l1 261h-30c-2-10 0-23-3-31C134-8 116 4 85 4 32 4 16-35 15-94c0-66 23-100 70-100zm9 24c-40 0-46 34-46 75 0 40 6 74 45 74 42 0 51-32 51-76 0-42-9-74-50-73" id="Q"/><path fill="#a9afb8" d="M141-36C126-15 110 5 73 4 37 3 15-17 15-53c-1-64 63-63 125-63 3-35-9-54-41-54-24 1-41 7-42 31l-33-3c5-37 33-52 76-52 45 0 72 20 72 64v82c-1 20 7 32 28 27v20c-31 9-61-2-59-35zM48-53c0 20 12 33 32 33 41-3 63-29 60-74-43 2-92-5-92 41" id="R"/><path fill="#a9afb8" d="M117-194c89-4 53 116 60 194h-32v-121c0-31-8-49-39-48C34-167 62-67 57 0H25l-1-190h30c1 10-1 24 2 32 11-22 29-35 61-36" id="S"/><g id="b"><use transform="matrix(0.04248971193415638,0,0,0.04248971193415638,0,0)" xlink:href="#N"/><use transform="matrix(0.04248971193415638,0,0,0.04248971193415638,7.648148148148148,0)" xlink:href="#O"/><use transform="matrix(0.04248971193415638,0,0,0.04248971193415638,16.14609053497942,0)" xlink:href="#P"/><use transform="matrix(0.04248971193415638,0,0,0.04248971193415638,21.20236625514403,0)" xlink:href="#Q"/><use transform="matrix(0.04248971193415638,0,0,0.04248971193415638,29.7003086419753,0)" xlink:href="#R"/><use transform="matrix(0.04248971193415638,0,0,0.04248971193415638,38.19825102880658,0)" xlink:href="#S"/></g><path fill="#a9afb8" d="M233-177c-1 41-23 64-60 70L243 0h-38l-65-103H63V0H30v-248c88 3 205-21 203 71zM63-129c60-2 137 13 137-47 0-61-80-42-137-45v92" id="T"/><path fill="#a9afb8" d="M84 4C-5 8 30-112 23-190h32v120c0 31 7 50 39 49 72-2 45-101 50-169h31l1 190h-30c-1-10 1-25-2-33-11 22-28 36-60 37" id="U"/><path fill="#a9afb8" d="M24-231v-30h32v30H24zM24 0v-190h32V0H24" id="V"/><path fill="#a9afb8" d="M9 0v-24l116-142H16v-24h144v24L44-24h123V0H9" id="W"/><g id="c"><use transform="matrix(0.04248971193415638,0,0,0.04248971193415638,0,0)" xlink:href="#T"/><use transform="matrix(0.04248971193415638,0,0,0.04248971193415638,11.004835390946502,0)" xlink:href="#U"/><use transform="matrix(0.04248971193415638,0,0,0.04248971193415638,19.502777777777776,0)" xlink:href="#V"/><use transform="matrix(0.04248971193415638,0,0,0.04248971193415638,22.85946502057613,0)" xlink:href="#W"/></g><path fill="#a9afb8" d="M32 76v-337h29V76H32" id="X"/><use transform="matrix(0.04248971193415638,0,0,0.04248971193415638,0,0)" xlink:href="#X" id="d"/><path fill="#333" d="M238-179c0 84-86 86-175 82L45 0H11l48-248c82 0 179-12 179 69zm-34 1c0-53-64-42-116-43l-19 98c63 0 135 9 135-55" id="Y"/><path fill="#333" d="M20-101c0-91 52-143 145-150 126-9 127 168 53 223-23 17-55 32-93 32C57 4 20-33 20-101zm216-33c5-57-18-91-73-90-77 1-110 51-110 125 0 49 23 75 73 75 72-1 104-45 110-110" id="Z"/><path fill="#333" d="M194-120c59 52 2 134-86 124-53-6-90-18-98-63l31-7c8 30 29 43 70 43 46 0 84-17 71-62-32-43-135-20-137-98-3-89 178-90 191-16l-30 9c-8-48-127-53-127 5 0 53 81 35 115 65" id="aa"/><path fill="#333" d="M151-220L108 0H75l42-220H32l6-28h203l-5 28h-85" id="ab"/><g id="e"><use transform="matrix(0.08086419753086417,0,0,0.08086419753086417,0,0)" xlink:href="#Y"/><use transform="matrix(0.08086419753086417,0,0,0.08086419753086417,19.4074074074074,0)" xlink:href="#Z"/><use transform="matrix(0.08086419753086417,0,0,0.08086419753086417,42.04938271604937,0)" xlink:href="#aa"/><use transform="matrix(0.08086419753086417,0,0,0.08086419753086417,61.45679012345677,0)" xlink:href="#ab"/></g><path d="M30-248c87 1 191-15 191 75 0 78-77 80-158 76V0H30v-248zm33 125c57 0 124 11 124-50 0-59-68-47-124-48v98" id="ac"/><path d="M194 0L95-120 63-95V0H30v-248h33v124l119-124h40L117-140 236 0h-42" id="ad"/><g id="f"><use transform="matrix(0.08086419753086417,0,0,0.08086419753086417,0,0)" xlink:href="#ac"/><use transform="matrix(0.08086419753086417,0,0,0.08086419753086417,19.4074074074074,0)" xlink:href="#ad"/></g><path fill="#333" d="M14 0l48-248h34L48 0H14" id="ae"/><path fill="#333" d="M248-139C247-14 144 9 11 0l48-248c105-6 190 8 189 109zm-34 0c1-70-52-87-126-82L50-27c98 7 163-21 164-112" id="af"/><g id="g"><use transform="matrix(0.08086419753086417,0,0,0.08086419753086417,0,0)" xlink:href="#ae"/><use transform="matrix(0.08086419753086417,0,0,0.08086419753086417,8.086419753086417,0)" xlink:href="#af"/></g><path d="M100-194c63 0 86 42 84 106H49c0 40 14 67 53 68 26 1 43-12 49-29l28 8c-11 28-37 45-77 45C44 4 14-33 15-96c1-61 26-98 85-98zm52 81c6-60-76-77-97-28-3 7-6 17-6 28h103" id="ag"/><path d="M179-190L93 31C79 59 56 82 12 73V49c39 6 53-20 64-50L1-190h34L92-34l54-156h33" id="ah"/><g id="h"><use transform="matrix(0.08086419753086417,0,0,0.08086419753086417,0,0)" xlink:href="#ad"/><use transform="matrix(0.08086419753086417,0,0,0.08086419753086417,19.4074074074074,0)" xlink:href="#ag"/><use transform="matrix(0.08086419753086417,0,0,0.08086419753086417,35.58024691358024,0)" xlink:href="#ah"/></g><path fill="#333" d="M50-231l6-30h32l-6 30H50zM6 0l37-190h31L37 0H6" id="ai"/><path fill="#333" d="M51-54c-9 22 5 41 31 30L79-1C43 14 10-4 19-52l22-115H19l5-23h22l19-43h21l-9 43h35l-4 23H73" id="aj"/><path fill="#333" d="M6 0l50-261h32L37 0H6" id="ak"/><path fill="#333" d="M111-194c62-3 86 47 72 106H45c-7 38 6 69 45 68 27-1 43-14 53-32l24 11C152-15 129 4 87 4 38 3 12-23 12-71c0-70 32-119 99-123zm44 81c14-66-71-72-95-28-4 8-8 17-11 28h106" id="al"/><g id="i"><use transform="matrix(0.08086419753086417,0,0,0.08086419753086417,0,0)" xlink:href="#ab"/><use transform="matrix(0.08086419753086417,0,0,0.08086419753086417,17.466666666666658,0)" xlink:href="#ai"/><use transform="matrix(0.08086419753086417,0,0,0.08086419753086417,23.85493827160493,0)" xlink:href="#aj"/><use transform="matrix(0.08086419753086417,0,0,0.08086419753086417,31.941358024691347,0)" xlink:href="#ak"/><use transform="matrix(0.08086419753086417,0,0,0.08086419753086417,38.329629629629615,0)" xlink:href="#al"/></g><path fill="#333" d="M124 0L87-78 21 0h-35l86-98-46-92h33l34 74 61-74h37l-83 92 50 98h-34" id="am"/><g id="j"><use transform="matrix(0.08086419753086417,0,0,0.08086419753086417,0,0)" xlink:href="#ab"/><use transform="matrix(0.08086419753086417,0,0,0.08086419753086417,15.040740740740734,0)" xlink:href="#al"/><use transform="matrix(0.08086419753086417,0,0,0.08086419753086417,31.21358024691357,0)" xlink:href="#am"/><use transform="matrix(0.08086419753086417,0,0,0.08086419753086417,45.76913580246912,0)" xlink:href="#aj"/></g><path fill="#333" d="M11 0l48-248h34L50-27h125l-5 27H11" id="an"/><path fill="#333" d="M30-147c31-64 166-65 159 27C183-49 158 1 86 4 9 8 1-88 30-147zM88-20c53 0 68-48 68-100 0-31-11-51-44-50-52 1-68 46-68 97 0 32 13 53 44 53" id="ao"/><path fill="#333" d="M44-68c0 29 11 47 38 47 30 0 42-19 51-41l28 9C148-21 126 4 82 4 31 4 10-29 12-85c3-77 74-140 146-93 12 8 15 23 18 40l-31 5c-1-22-13-36-36-36-52 0-65 49-65 101" id="ap"/><path fill="#333" d="M165-48c-4 18 1 34 23 27l-3 20c-29 8-62 0-52-35h-2C116-14 99 4 63 4 30 4 8-16 8-49c0-68 71-67 138-67 10-26 0-56-31-54-26 1-42 9-47 31l-32-5c8-67 160-71 144 15-5 28-9 54-15 81zM42-50c3 52 80 24 89-6 7-12 7-24 11-38-47 1-103-4-100 44" id="aq"/><path fill="#333" d="M67-158c22-48 132-52 116 29L158 0h-32l25-140c3-38-53-32-70-12C52-117 51-52 38 0H6l36-190h30" id="ar"/><g id="k"><use transform="matrix(0.08086419753086417,0,0,0.08086419753086417,0,0)" xlink:href="#an"/><use transform="matrix(0.08086419753086417,0,0,0.08086419753086417,16.172839506172835,0)" xlink:href="#ao"/><use transform="matrix(0.08086419753086417,0,0,0.08086419753086417,32.34567901234567,0)" xlink:href="#ap"/><use transform="matrix(0.08086419753086417,0,0,0.08086419753086417,46.90123456790122,0)" xlink:href="#aq"/><use transform="matrix(0.08086419753086417,0,0,0.08086419753086417,63.074074074074055,0)" xlink:href="#aj"/><use transform="matrix(0.08086419753086417,0,0,0.08086419753086417,71.16049382716048,0)" xlink:href="#ai"/><use transform="matrix(0.08086419753086417,0,0,0.08086419753086417,77.54876543209875,0)" xlink:href="#ao"/><use transform="matrix(0.08086419753086417,0,0,0.08086419753086417,93.72160493827157,0)" xlink:href="#ar"/></g><path d="M63-220v92h138v28H63V0H30v-248h175v28H63" id="as"/><g id="l"><use transform="matrix(0.08086419753086417,0,0,0.08086419753086417,0,0)" xlink:href="#as"/><use transform="matrix(0.08086419753086417,0,0,0.08086419753086417,17.70925925925925,0)" xlink:href="#ad"/></g><path fill="#333" d="M62-99C39-31 123 0 170-40s38-139 58-208h34C234-144 253 4 115 4 49 4 18-43 31-112l26-136h34" id="at"/><path fill="#333" d="M55-144c13 50 104 24 104 88C159 21 15 23 1-39l26-10c6 40 102 42 102-4-13-50-104-23-104-87 0-71 143-71 148-8l-29 4c-5-35-85-37-89 0" id="au"/><path fill="#333" d="M66-151c12-25 30-51 66-40l-6 26C45-176 58-65 38 0H6l36-190h30" id="av"/><path fill="#333" d="M-28 44V31h207v13H-28" id="aw"/><path fill="#333" d="M133-28C103 26-5 8 13-77c13-62 24-115 90-117 29-1 46 15 56 35l19-102h32L160 0h-30zM45-64c-2 27 10 43 35 43 54-1 69-50 69-103 0-29-15-46-42-46-53-1-58 58-62 106" id="ax"/><g id="m"><use transform="matrix(0.08086419753086417,0,0,0.08086419753086417,0,0)" xlink:href="#at"/><use transform="matrix(0.08086419753086417,0,0,0.08086419753086417,20.94382716049382,0)" xlink:href="#au"/><use transform="matrix(0.08086419753086417,0,0,0.08086419753086417,35.49938271604937,0)" xlink:href="#al"/><use transform="matrix(0.08086419753086417,0,0,0.08086419753086417,51.6722222222222,0)" xlink:href="#av"/><use transform="matrix(0.08086419753086417,0,0,0.08086419753086417,61.29506172839504,0)" xlink:href="#aw"/><use transform="matrix(0.08086419753086417,0,0,0.08086419753086417,77.46790123456788,0)" xlink:href="#ai"/><use transform="matrix(0.08086419753086417,0,0,0.08086419753086417,83.85617283950614,0)" xlink:href="#ax"/></g><path fill="#333" d="M103-194c29 0 47 14 56 36 2-11 5-23 8-32h30L160-5C157 61 82 97 21 62 9 55 4 45 1 30l28-7c7 42 83 31 92-3 4-16 9-38 13-55-13 20-29 36-62 36-40 0-60-25-60-64 0-71 23-131 91-131zm4 24c-53 0-58 54-61 104-2 27 10 44 36 44 49 0 65-50 67-102 1-29-15-46-42-46" id="ay"/><g id="n"><use transform="matrix(0.08086419753086417,0,0,0.08086419753086417,0,0)" xlink:href="#av"/><use transform="matrix(0.08086419753086417,0,0,0.08086419753086417,9.622839506172836,0)" xlink:href="#al"/><use transform="matrix(0.08086419753086417,0,0,0.08086419753086417,25.79567901234567,0)" xlink:href="#ay"/><use transform="matrix(0.08086419753086417,0,0,0.08086419753086417,41.96851851851851,0)" xlink:href="#ai"/><use transform="matrix(0.08086419753086417,0,0,0.08086419753086417,48.356790123456776,0)" xlink:href="#ao"/><use transform="matrix(0.08086419753086417,0,0,0.08086419753086417,64.52962962962961,0)" xlink:href="#ar"/><use transform="matrix(0.08086419753086417,0,0,0.08086419753086417,80.70246913580245,0)" xlink:href="#aw"/><use transform="matrix(0.08086419753086417,0,0,0.08086419753086417,96.87530864197528,0)" xlink:href="#ai"/><use transform="matrix(0.08086419753086417,0,0,0.08086419753086417,103.26358024691355,0)" xlink:href="#ax"/></g><path fill="#333" d="M198-190L69 30C53 58 25 83-20 72c4-11-1-27 19-22 33-1 43-29 59-52L20-190h32L79-34l84-156h35" id="az"/><g id="o"><use transform="matrix(0.08086419753086417,0,0,0.08086419753086417,0,0)" xlink:href="#ap"/><use transform="matrix(0.08086419753086417,0,0,0.08086419753086417,14.55555555555555,0)" xlink:href="#aq"/><use transform="matrix(0.08086419753086417,0,0,0.08086419753086417,30.728395061728385,0)" xlink:href="#aj"/><use transform="matrix(0.08086419753086417,0,0,0.08086419753086417,38.8148148148148,0)" xlink:href="#al"/><use transform="matrix(0.08086419753086417,0,0,0.08086419753086417,54.98765432098764,0)" xlink:href="#ay"/><use transform="matrix(0.08086419753086417,0,0,0.08086419753086417,71.16049382716048,0)" xlink:href="#ao"/><use transform="matrix(0.08086419753086417,0,0,0.08086419753086417,87.33333333333333,0)" xlink:href="#av"/><use transform="matrix(0.08086419753086417,0,0,0.08086419753086417,96.95617283950615,0)" xlink:href="#az"/><use transform="matrix(0.08086419753086417,0,0,0.08086419753086417,111.51172839506171,0)" xlink:href="#aw"/><use transform="matrix(0.08086419753086417,0,0,0.08086419753086417,127.68456790123454,0)" xlink:href="#ai"/><use transform="matrix(0.08086419753086417,0,0,0.08086419753086417,134.0728395061728,0)" xlink:href="#ax"/></g><path fill="#333" d="M249-183c0 48-29 72-75 77L221 0h-36l-43-103H65L45 0H11l48-248c83 2 190-17 190 65zm-34 3c0-55-74-39-127-41l-18 92c63-1 145 13 145-51" id="aA"/><g id="p"><use transform="matrix(0.08086419753086417,0,0,0.08086419753086417,0,0)" xlink:href="#aA"/><use transform="matrix(0.08086419753086417,0,0,0.08086419753086417,20.94382716049382,0)" xlink:href="#al"/><use transform="matrix(0.08086419753086417,0,0,0.08086419753086417,37.11666666666666,0)" xlink:href="#ay"/><use transform="matrix(0.08086419753086417,0,0,0.08086419753086417,53.289506172839495,0)" xlink:href="#ai"/><use transform="matrix(0.08086419753086417,0,0,0.08086419753086417,59.67777777777777,0)" xlink:href="#ao"/><use transform="matrix(0.08086419753086417,0,0,0.08086419753086417,75.8506172839506,0)" xlink:href="#ar"/><use transform="matrix(0.08086419753086417,0,0,0.08086419753086417,92.02345679012343,0)" xlink:href="#au"/></g><g id="q"><use transform="matrix(0.05,0,0,0.05,0,0)" xlink:href="#ac"/><use transform="matrix(0.05,0,0,0.05,12,0)" xlink:href="#ad"/></g><g id="r"><use transform="matrix(0.05,0,0,0.05,0,0)" xlink:href="#ad"/><use transform="matrix(0.05,0,0,0.05,12,0)" xlink:href="#ag"/><use transform="matrix(0.05,0,0,0.05,22,0)" xlink:href="#ah"/></g><path fill="#333" d="M173 0L80-213 41 0H11l48-248h37l94 214 40-214h30L212 0h-39" id="aB"/><path fill="#333" d="M187 0l-14-72H61L19 0h-37l149-248h38L221 0h-34zm-19-99l-22-123L76-99h92" id="aC"/><path fill="#333" d="M222 0l43-216c-8 16-17 34-26 49L143 0h-22L81-216 41 0H11l48-248h42l38 208 116-208h45L252 0h-30" id="aD"/><path fill="#333" d="M11 0l48-248h184l-5 28H87l-15 79h140l-5 27H67L50-27h158l-5 27H11" id="aE"/><g id="s"><use transform="matrix(0.08086419753086417,0,0,0.08086419753086417,0,0)" xlink:href="#aB"/><use transform="matrix(0.08086419753086417,0,0,0.08086419753086417,20.94382716049382,0)" xlink:href="#aC"/><use transform="matrix(0.08086419753086417,0,0,0.08086419753086417,40.35123456790122,0)" xlink:href="#aD"/><use transform="matrix(0.08086419753086417,0,0,0.08086419753086417,64.52962962962961,0)" xlink:href="#aE"/></g><g id="t"><use transform="matrix(0.08086419753086417,0,0,0.08086419753086417,0,0)" xlink:href="#at"/><use transform="matrix(0.08086419753086417,0,0,0.08086419753086417,20.94382716049382,0)" xlink:href="#au"/><use transform="matrix(0.08086419753086417,0,0,0.08086419753086417,35.49938271604937,0)" xlink:href="#al"/><use transform="matrix(0.08086419753086417,0,0,0.08086419753086417,51.6722222222222,0)" xlink:href="#av"/><use transform="matrix(0.08086419753086417,0,0,0.08086419753086417,61.29506172839504,0)" xlink:href="#au"/></g><path fill="#333" d="M180 0L97-118 63-96 45 0H11l48-248h34L69-126c44-43 94-81 141-122h43L121-137 219 0h-39" id="aF"/><g id="u"><use transform="matrix(0.08086419753086417,0,0,0.08086419753086417,0,0)" xlink:href="#Y"/><use transform="matrix(0.08086419753086417,0,0,0.08086419753086417,19.4074074074074,0)" xlink:href="#aF"/></g><path fill="#333" d="M138-103L118 0H85l20-103-68-145h35l54 119 98-119h38" id="aG"/><g id="v"><use transform="matrix(0.08086419753086417,0,0,0.08086419753086417,0,0)" xlink:href="#aF"/><use transform="matrix(0.08086419753086417,0,0,0.08086419753086417,19.4074074074074,0)" xlink:href="#aE"/><use transform="matrix(0.08086419753086417,0,0,0.08086419753086417,38.8148148148148,0)" xlink:href="#aG"/></g><path d="M718-107C633-20 526 23 395 20 181 15 71-151 110-383l116-699h181L290-380c-17 133 23 239 147 243 129 4 229-48 300-157l136-788h181L866 0H695" id="aH"/><path d="M231-333c-1 124 89 201 217 201 122 0 240-56 253-161 9-75-30-131-123-158l-188-55c-159-55-234-145-230-272 6-193 214-324 421-324 206 0 374 135 365 339l-180-1c4-110-81-185-192-185-115 0-223 63-235 164-8 63 29 112 115 137 217 64 438 103 427 341C871-88 677 18 442 20 228 22 41-122 50-334" id="aI"/><path d="M267-488c-26 188 71 355 247 357 107 1 205-45 296-144l104 88C832-68 690 21 499 20 214 19 51-235 92-543c28-211 142-407 287-495 158-96 394-79 506 47 97 108 124 311 89 503H267zm509-376c-76-117-261-108-358-11-54 54-99 131-132 235l526 1c18-84 2-166-36-225" id="aJ"/><path d="M704-917c-165-30-276 20-359 148L212 0H31l188-1082 175-1-27 126c100-123 200-175 357-132" id="aK"/><path d="M390-1083l-26 137c97-107 208-159 332-156 212 6 319 161 280 393L858 0H677l119-712c18-142-34-234-164-234-109 0-204 56-286 174L212 0H31l188-1082" id="aL"/><path d="M693 0c-10-37-6-74-4-114C590-22 484 20 373 20 194 20 47-112 59-292c17-247 243-368 520-365l189 1c15-84 22-185-26-240-65-75-223-71-306-12-47 33-77 73-88 125l-182 1c29-208 221-321 452-321 215 0 378 144 342 364l-88 536c-5 65-10 126 7 186l-2 17H693zM280-192c64 73 206 62 294 10 51-30 96-69 133-120l39-223c-244-11-476 9-502 206-6 51 6 93 36 127" id="aM"/><path d="M388-1083l-23 121c91-96 200-143 329-140 138 2 239 67 273 174 101-119 221-177 359-174 217 3 334 162 296 391L1503 0h-180l118-713c18-149-38-232-178-234-141-2-262 104-283 228L857 0H675l120-712c18-144-45-231-178-233-113-3-202 49-269 154L211 0H30l188-1082" id="aN"/><g id="w"><use transform="matrix(0.014756944444444439,0,0,0.014756944444444439,0,0)" xlink:href="#aH"/><use transform="matrix(0.014756944444444439,0,0,0.014756944444444439,16.306423611111104,0)" xlink:href="#aI"/><use transform="matrix(0.014756944444444439,0,0,0.014756944444444439,31.565104166666654,0)" xlink:href="#aJ"/><use transform="matrix(0.014756944444444439,0,0,0.014756944444444439,47.23697916666665,0)" xlink:href="#aK"/><use transform="matrix(0.014756944444444439,0,0,0.014756944444444439,57.30121527777776,0)" xlink:href="#aL"/><use transform="matrix(0.014756944444444439,0,0,0.014756944444444439,73.62239583333331,0)" xlink:href="#aM"/><use transform="matrix(0.014756944444444439,0,0,0.014756944444444439,89.7222222222222,0)" xlink:href="#aN"/><use transform="matrix(0.014756944444444439,0,0,0.014756944444444439,115.56163194444441,0)" xlink:href="#aJ"/></g><path fill="#333" d="M87-220l-18 92h140l-5 28H64L45 0H11l48-248h178l-5 28H87" id="aO"/><g id="x"><use transform="matrix(0.08086419753086417,0,0,0.08086419753086417,0,0)" xlink:href="#aO"/><use transform="matrix(0.08086419753086417,0,0,0.08086419753086417,17.70925925925925,0)" xlink:href="#aF"/></g><path d="M1019-681c4 288-98 524-268 639-157 107-414 73-514-64l-97 522H-41l260-1498 164-1-20 121c89-96 196-144 321-140 224 6 332 183 335 421zM708-236c74-84 127-229 130-405s-61-298-216-305c-105-5-195 47-271 149l-91 519c41 96 114 145 219 148 90 2 166-34 229-106" id="aP"/><path d="M119 0l164-939H116l25-143h166c16-160 49-300 144-383 101-88 236-115 397-77l-22 151c-96-22-191-11-250 47-61 60-74 158-88 262h224l-25 143H463L300 0H119" id="aQ"/><path d="M174-98C35-272 67-655 174-841c85-148 201-262 404-262 121 0 213 47 278 132l104-565h181L875 0H710l19-116C595 47 309 72 174-98zm126-594c-73 205-75 556 166 556 105 0 198-48 279-158l86-500c-40-99-113-151-218-152-167-2-264 117-313 254" id="aR"/><path d="M763 151h-890l27-151h890" id="aS"/><path d="M123-184c-88-202-33-508 57-666 83-146 199-253 398-253 125 0 220 50 284 142l36-121h166L884-23c-30 256-228 459-511 450-159-5-303-84-369-189l103-111c65 97 152 146 259 149 189 4 305-120 337-288l20-96C600 22 394 67 238-34c-51-33-88-85-115-150zm344 48c108 2 201-50 279-159l85-497c-40-99-112-151-217-154-98-3-176 40-242 120-126 151-208 685 95 690" id="aT"/><path d="M227 0H47l188-1082h180zm73-1444c36-38 112-44 152-6 39 38 38 117 0 155-36 37-114 43-153 5s-35-116 1-154" id="aU"/><path d="M368-1032c145-90 364-94 497 4 125 92 200 279 173 497-26 214-136 393-288 484-146 88-361 90-494-7C135-143 64-314 82-523c19-226 133-414 286-509zm19 191c-89 104-138 255-123 450 11 144 88 261 232 261 228 0 333-194 361-401 31-227-34-407-232-420-93-6-173 35-238 110" id="aV"/><g id="y"><use transform="matrix(0.014756944444444442,0,0,0.014756944444444442,0,0)" xlink:href="#aP"/><use transform="matrix(0.014756944444444442,0,0,0.014756944444444442,16.601562499999996,0)" xlink:href="#aK"/><use transform="matrix(0.014756944444444442,0,0,0.014756944444444442,26.385416666666664,0)" xlink:href="#aJ"/><use transform="matrix(0.014756944444444442,0,0,0.014756944444444442,42.057291666666664,0)" xlink:href="#aQ"/><use transform="matrix(0.014756944444444442,0,0,0.014756944444444442,52.03298611111111,0)" xlink:href="#aJ"/><use transform="matrix(0.014756944444444442,0,0,0.014756944444444442,67.7048611111111,0)" xlink:href="#aK"/><use transform="matrix(0.014756944444444442,0,0,0.014756944444444442,77.76909722222221,0)" xlink:href="#aK"/><use transform="matrix(0.014756944444444442,0,0,0.014756944444444442,87.55295138888889,0)" xlink:href="#aJ"/><use transform="matrix(0.014756944444444442,0,0,0.014756944444444442,103.22482638888889,0)" xlink:href="#aR"/><use transform="matrix(0.014756944444444442,0,0,0.014756944444444442,119.90017361111111,0)" xlink:href="#aS"/><use transform="matrix(0.014756944444444442,0,0,0.014756944444444442,133.26996527777777,0)" xlink:href="#aK"/><use transform="matrix(0.014756944444444442,0,0,0.014756944444444442,143.05381944444443,0)" xlink:href="#aJ"/><use transform="matrix(0.014756944444444442,0,0,0.014756944444444442,158.72569444444443,0)" xlink:href="#aT"/><use transform="matrix(0.014756944444444442,0,0,0.014756944444444442,175.32725694444443,0)" xlink:href="#aU"/><use transform="matrix(0.014756944444444442,0,0,0.014756944444444442,182.5876736111111,0)" xlink:href="#aV"/><use transform="matrix(0.014756944444444442,0,0,0.014756944444444442,199.4548611111111,0)" xlink:href="#aL"/><use transform="matrix(0.014756944444444442,0,0,0.014756944444444442,215.77604166666663,0)" xlink:href="#aS"/><use transform="matrix(0.014756944444444442,0,0,0.014756944444444442,229.1458333333333,0)" xlink:href="#aU"/><use transform="matrix(0.014756944444444442,0,0,0.014756944444444442,236.40624999999994,0)" xlink:href="#aR"/></g><path fill="#333" d="M125-24c46 0 70-25 89-51l25 16C214-24 183 4 123 4 8 4-5-146 60-208c32-50 158-61 191-5 5 7 9 14 11 22l-32 10c-9-28-33-43-69-43-74 0-108 51-108 125 0 46 24 75 72 75" id="aW"/><g id="z"><use transform="matrix(0.08086419753086417,0,0,0.08086419753086417,0,0)" xlink:href="#Y"/><use transform="matrix(0.08086419753086417,0,0,0.08086419753086417,19.4074074074074,0)" xlink:href="#ao"/><use transform="matrix(0.08086419753086417,0,0,0.08086419753086417,35.58024691358024,0)" xlink:href="#au"/><use transform="matrix(0.08086419753086417,0,0,0.08086419753086417,50.13580246913578,0)" xlink:href="#aj"/><use transform="matrix(0.08086419753086417,0,0,0.08086419753086417,58.2222222222222,0)" xlink:href="#aW"/><use transform="matrix(0.08086419753086417,0,0,0.08086419753086417,79.16604938271603,0)" xlink:href="#aq"/><use transform="matrix(0.08086419753086417,0,0,0.08086419753086417,95.33888888888886,0)" xlink:href="#aj"/><use transform="matrix(0.08086419753086417,0,0,0.08086419753086417,103.42530864197528,0)" xlink:href="#al"/><use transform="matrix(0.08086419753086417,0,0,0.08086419753086417,119.59814814814811,0)" xlink:href="#ay"/><use transform="matrix(0.08086419753086417,0,0,0.08086419753086417,135.77098765432095,0)" xlink:href="#ao"/><use transform="matrix(0.08086419753086417,0,0,0.08086419753086417,151.94382716049378,0)" xlink:href="#av"/><use transform="matrix(0.08086419753086417,0,0,0.08086419753086417,161.5666666666666,0)" xlink:href="#ai"/><use transform="matrix(0.08086419753086417,0,0,0.08086419753086417,167.95493827160487,0)" xlink:href="#al"/><use transform="matrix(0.08086419753086417,0,0,0.08086419753086417,184.1277777777777,0)" xlink:href="#au"/></g><g id="A"><use transform="matrix(0.08086419753086417,0,0,0.08086419753086417,0,0)" xlink:href="#aF"/><use transform="matrix(0.08086419753086417,0,0,0.08086419753086417,19.4074074074074,0)" xlink:href="#aE"/><use transform="matrix(0.08086419753086417,0,0,0.08086419753086417,38.8148148148148,0)" xlink:href="#aG"/></g><path fill="#333" d="M248-111c6-24 9-61-24-58-72 9-57 108-77 169h-31l26-142c3-37-50-30-64-10C52-115 50-51 37 0H6l36-190h30c-1 10-6 24-4 32 13-43 101-52 105 5 13-22 29-41 61-41 90 0 28 129 23 194h-31" id="aX"/><g id="B"><use transform="matrix(0.08086419753086417,0,0,0.08086419753086417,0,0)" xlink:href="#aB"/><use transform="matrix(0.08086419753086417,0,0,0.08086419753086417,20.94382716049382,0)" xlink:href="#aq"/><use transform="matrix(0.08086419753086417,0,0,0.08086419753086417,37.11666666666666,0)" xlink:href="#aX"/><use transform="matrix(0.08086419753086417,0,0,0.08086419753086417,61.29506172839505,0)" xlink:href="#al"/></g><path fill="#333" d="M67-162c32-53 139-36 121 50C175-51 163 2 97 4 68 4 52-11 42-31 38 6 28 39 22 75H-9l50-265h29c-1 10 0 20-3 28zm89 36c0-26-10-43-35-43-54 0-67 50-69 103-1 29 14 45 42 46 53 0 62-58 62-106" id="aY"/><g id="C"><use transform="matrix(0.08086419753086417,0,0,0.08086419753086417,0,0)" xlink:href="#af"/><use transform="matrix(0.08086419753086417,0,0,0.08086419753086417,20.94382716049382,0)" xlink:href="#al"/><use transform="matrix(0.08086419753086417,0,0,0.08086419753086417,37.11666666666666,0)" xlink:href="#au"/><use transform="matrix(0.08086419753086417,0,0,0.08086419753086417,51.67222222222222,0)" xlink:href="#ap"/><use transform="matrix(0.08086419753086417,0,0,0.08086419753086417,66.22777777777776,0)" xlink:href="#av"/><use transform="matrix(0.08086419753086417,0,0,0.08086419753086417,75.8506172839506,0)" xlink:href="#ai"/><use transform="matrix(0.08086419753086417,0,0,0.08086419753086417,82.23888888888887,0)" xlink:href="#aY"/><use transform="matrix(0.08086419753086417,0,0,0.08086419753086417,98.4117283950617,0)" xlink:href="#aj"/><use transform="matrix(0.08086419753086417,0,0,0.08086419753086417,106.49814814814812,0)" xlink:href="#ai"/><use transform="matrix(0.08086419753086417,0,0,0.08086419753086417,112.88641975308639,0)" xlink:href="#ao"/><use transform="matrix(0.08086419753086417,0,0,0.08086419753086417,129.05925925925922,0)" xlink:href="#ar"/></g><g id="D"><use transform="matrix(0.08086419753086417,0,0,0.08086419753086417,0,0)" xlink:href="#aW"/><use transform="matrix(0.08086419753086417,0,0,0.08086419753086417,20.94382716049382,0)" xlink:href="#aq"/><use transform="matrix(0.08086419753086417,0,0,0.08086419753086417,37.11666666666666,0)" xlink:href="#aj"/><use transform="matrix(0.08086419753086417,0,0,0.08086419753086417,45.20308641975308,0)" xlink:href="#al"/><use transform="matrix(0.08086419753086417,0,0,0.08086419753086417,61.37592592592591,0)" xlink:href="#ay"/><use transform="matrix(0.08086419753086417,0,0,0.08086419753086417,77.54876543209875,0)" xlink:href="#ao"/><use transform="matrix(0.08086419753086417,0,0,0.08086419753086417,93.72160493827157,0)" xlink:href="#av"/><use transform="matrix(0.08086419753086417,0,0,0.08086419753086417,103.34444444444443,0)" xlink:href="#ai"/><use transform="matrix(0.08086419753086417,0,0,0.08086419753086417,109.73271604938267,0)" xlink:href="#al"/><use transform="matrix(0.08086419753086417,0,0,0.08086419753086417,125.90555555555551,0)" xlink:href="#au"/></g><g id="E"><use transform="matrix(0.08086419753086417,0,0,0.08086419753086417,0,0)" xlink:href="#aB"/><use transform="matrix(0.08086419753086417,0,0,0.08086419753086417,20.94382716049382,0)" xlink:href="#aq"/><use transform="matrix(0.08086419753086417,0,0,0.08086419753086417,37.11666666666666,0)" xlink:href="#aX"/><use transform="matrix(0.08086419753086417,0,0,0.08086419753086417,61.29506172839505,0)" xlink:href="#al"/></g></defs></g></svg>