<svg xmlns="http://www.w3.org/2000/svg" xmlns:xlink="http://www.w3.org/1999/xlink" xmlns:lucid="lucid" width="1843" height="1161.5"><g transform="translate(3862.499958653846 2401)" lucid:page-tab-id="0_0"><path d="M-2210-1599.5v63.5a6 6 0 0 1-6 6h-227.5a6 6 0 0 0-6 6v64.1" stroke="#3a414a" fill="none"/><path d="M-2220-1599.5h20M-2210-1619.5v20" stroke="#3a414a" fill="#fff"/><path d="M-2459.5-1440.72l10-20 10 20" stroke="#3a414a" fill="#fff" fill-opacity="0"/><path d="M-2449.5-1440.72v-20" stroke="#3a414a" fill="#fff"/><path d="M-3100-2372a8 8 0 0 1 8-8h836.75a8 8 0 0 1 8 8v25.16a8 8 0 0 1-8 8H-3092a8 8 0 0 1-8-8z" stroke="#000" stroke-opacity="0" stroke-width="2" fill="#fff" fill-opacity="0"/><use xlink:href="#a" transform="matrix(1,0,0,1,-3096,-2376) translate(332.7575308641975 25.782777777777778)"/><use xlink:href="#b" transform="matrix(1,0,0,1,-3096,-2376) translate(436.04395061728394 25.782777777777778)"/><path d="M-2924.5-2340.2h505.85M-2924.5-2340.2h-1M-2418.68-2340.2h1.03" stroke="#a9afb8" stroke-width="2" fill="none"/><path d="M-3100-2330.84a8 8 0 0 1 8-8h837.7a8 8 0 0 1 8 8v2.84a8 8 0 0 1-8 8H-3092a8 8 0 0 1-8-8z" stroke="#000" stroke-opacity="0" stroke-width="2" fill="#fff" fill-opacity="0"/><use xlink:href="#c" transform="matrix(1,0,0,1,-3096,-2334.844776043101) translate(379.3588683127572 14.917037037037037)"/><use xlink:href="#d" transform="matrix(1,0,0,1,-3096,-2334.844776043101) translate(430.3040329218107 14.917037037037037)"/><use xlink:href="#e" transform="matrix(1,0,0,1,-3096,-2334.844776043101) translate(469.3095884773662 14.917037037037037)"/><path d="M-3420.1-1827.5h8.6a12 12 0 0 0 12-12V-2031a12 12 0 0 1 12-12h325.5a12 12 0 0 1 12 12v8" stroke="#333" fill="none"/><path d="M-3439.28-1837.5l20 10-20 10" stroke="#333" fill="#fff" fill-opacity="0"/><path d="M-3439.28-1827.5h20M-3040-2023h-20M-3050-2003v-20" stroke="#333" fill="#fff"/><path d="M-3840.5-1827.5h-8a12 12 0 0 0-12 12v456a12 12 0 0 0 12 12h268" stroke="#333" fill="none"/><path d="M-3840.5-1837.5v20M-3820.5-1827.5h-20M-3580.5-1357.5v20M-3560.5-1347.5h-20" stroke="#333" fill="#fff"/><path d="M-3820-1935a5 5 0 0 1 5-5h370a5 5 0 0 1 5 5v260a5 5 0 0 1-5 5h-370a5 5 0 0 1-5-5z" fill="#fff"/><path d="M-3820-1895v-40a5 5 0 0 1 5-5h370a5 5 0 0 1 5 5v40" fill="#ced4db"/><path d="M-3820-1935a5 5 0 0 1 5-5h370a5 5 0 0 1 5 5v260a5 5 0 0 1-5 5h-370a5 5 0 0 1-5-5zM-3820-1895h380M-3760-1895v225" stroke="#282c33" fill="none"/><use xlink:href="#f" transform="matrix(1,0,0,1,-3810,-1940) translate(0 28.322222222222223)"/><use xlink:href="#g" transform="matrix(1,0,0,1,-3815,-1892.5) translate(5.592592592592599 25.822222222222223)"/><use xlink:href="#h" transform="matrix(1,0,0,1,-3755,-1892.5) translate(0 25.822222222222223)"/><use xlink:href="#i" transform="matrix(1,0,0,1,-3815,-1847.5) translate(-0.06790123456789487 25.822222222222223)"/><use xlink:href="#j" transform="matrix(1,0,0,1,-3755,-1847.5) translate(0 25.822222222222223)"/><use xlink:href="#i" transform="matrix(1,0,0,1,-3815,-1802.5) translate(-0.06790123456789487 25.822222222222223)"/><use xlink:href="#k" transform="matrix(1,0,0,1,-3755,-1802.5) translate(0 25.822222222222223)"/><use xlink:href="#i" transform="matrix(1,0,0,1,-3815,-1757.5) translate(-0.06790123456789487 25.822222222222223)"/><use xlink:href="#l" transform="matrix(1,0,0,1,-3755,-1757.5) translate(0 25.822222222222223)"/><use xlink:href="#i" transform="matrix(1,0,0,1,-3815,-1712.5) translate(-0.06790123456789487 25.822222222222223)"/><use xlink:href="#m" transform="matrix(1,0,0,1,-3755,-1712.5) translate(0 30.32986111111111)"/><path d="M-3240-1997.5a5 5 0 0 1 5-5h370a5 5 0 0 1 5 5v215a5 5 0 0 1-5 5h-370a5 5 0 0 1-5-5z" fill="#fff"/><path d="M-3240-1957.5v-40a5 5 0 0 1 5-5h370a5 5 0 0 1 5 5v40" fill="#ced4db"/><path d="M-3240-1997.5a5 5 0 0 1 5-5h370a5 5 0 0 1 5 5v215a5 5 0 0 1-5 5h-370a5 5 0 0 1-5-5zM-3240-1957.5h380M-3180-1957.5v180" stroke="#282c33" fill="none"/><use xlink:href="#n" transform="matrix(1,0,0,1,-3230,-2002.4999999998834) translate(0 28.322222222222223)"/><use xlink:href="#o" transform="matrix(1,0,0,1,-3235,-1954.9999999998834) translate(13 23.6)"/><use xlink:href="#h" transform="matrix(1,0,0,1,-3175,-1954.9999999998834) translate(0 25.822222222222223)"/><use xlink:href="#p" transform="matrix(1,0,0,1,-3235,-1909.9999999998834) translate(9.5 23.6)"/><use xlink:href="#q" transform="matrix(1,0,0,1,-3175,-1909.9999999998834) translate(0 25.822222222222223)"/><use xlink:href="#p" transform="matrix(1,0,0,1,-3235,-1864.9999999998834) translate(9.5 23.6)"/><use xlink:href="#r" transform="matrix(1,0,0,1,-3175,-1864.9999999998834) translate(0 25.822222222222223)"/><use xlink:href="#p" transform="matrix(1,0,0,1,-3235,-1819.9999999998834) translate(9.5 23.6)"/><use xlink:href="#s" transform="matrix(1,0,0,1,-3175,-1819.9999999998834) translate(0 25.822222222222223)"/><path d="M-3560-1455a5 5 0 0 1 5-5h370a5 5 0 0 1 5 5v170a5 5 0 0 1-5 5h-370a5 5 0 0 1-5-5z" fill="#fff"/><path d="M-3560-1415v-40a5 5 0 0 1 5-5h370a5 5 0 0 1 5 5v40" fill="#ced4db"/><path d="M-3560-1455a5 5 0 0 1 5-5h370a5 5 0 0 1 5 5v170a5 5 0 0 1-5 5h-370a5 5 0 0 1-5-5zM-3560-1415h380M-3421.72-1415v135" stroke="#282c33" fill="none"/><use xlink:href="#t" transform="matrix(1,0,0,1,-3550,-1460) translate(0 28.322222222222223)"/><use xlink:href="#u" transform="matrix(1,0,0,1,-3555,-1412.5) translate(0 25.822222222222223)"/><use xlink:href="#h" transform="matrix(1,0,0,1,-3416.7201654241385,-1412.5) translate(0 25.822222222222223)"/><use xlink:href="#v" transform="matrix(1,0,0,1,-3555,-1367.5) translate(0 25.822222222222223)"/><use xlink:href="#w" transform="matrix(1,0,0,1,-3416.7201654241385,-1367.5) translate(0 30.329861111111107)"/><use xlink:href="#v" transform="matrix(1,0,0,1,-3555,-1322.5) translate(0 25.822222222222223)"/><use xlink:href="#x" transform="matrix(1,0,0,1,-3416.7201654241385,-1322.5) translate(0 30.32986111111111)"/><path d="M-2380-1795a5 5 0 0 1 5-5h330a5 5 0 0 1 5 5v170a5 5 0 0 1-5 5h-330a5 5 0 0 1-5-5z" fill="#fff"/><path d="M-2380-1755v-40a5 5 0 0 1 5-5h330a5 5 0 0 1 5 5v40" fill="#cfe4ff"/><path d="M-2380-1795a5 5 0 0 1 5-5h330a5 5 0 0 1 5 5v170a5 5 0 0 1-5 5h-330a5 5 0 0 1-5-5zM-2380-1755h340M-2241.72-1755v135" stroke="#282c33" fill="none"/><use xlink:href="#y" transform="matrix(1,0,0,1,-2370,-1800) translate(0 28.322222222222223)"/><use xlink:href="#u" transform="matrix(1,0,0,1,-2375,-1752.5) translate(0 25.822222222222223)"/><use xlink:href="#h" transform="matrix(1,0,0,1,-2236.7201654241385,-1752.5) translate(0 25.822222222222223)"/><use xlink:href="#v" transform="matrix(1,0,0,1,-2375,-1707.5) translate(0 25.822222222222223)"/><use xlink:href="#z" transform="matrix(1,0,0,1,-2236.7201654241385,-1707.5) translate(0 25.822222222222223)"/><use xlink:href="#v" transform="matrix(1,0,0,1,-2375,-1662.5) translate(0 25.822222222222223)"/><use xlink:href="#A" transform="matrix(1,0,0,1,-2236.7201654241385,-1662.5) translate(0 25.822222222222223)"/><path d="M-3210-1580v-19.4" stroke="#3a414a" fill="none"/><path d="M-3220-1580h20M-3210-1600v20" stroke="#3a414a" fill="#fff"/><path d="M-3220-1580.22l10-20 10 20" stroke="#3a414a" fill="#fff" fill-opacity="0"/><path d="M-3210-1580.22v-20" stroke="#3a414a" fill="#fff"/><path d="M-2620-1435a5 5 0 0 1 5-5h330a5 5 0 0 1 5 5v170a5 5 0 0 1-5 5h-330a5 5 0 0 1-5-5z" fill="#fff"/><path d="M-2620-1395v-40a5 5 0 0 1 5-5h330a5 5 0 0 1 5 5v40" fill="#cfe4ff"/><path d="M-2620-1435a5 5 0 0 1 5-5h330a5 5 0 0 1 5 5v170a5 5 0 0 1-5 5h-330a5 5 0 0 1-5-5zM-2620-1395h340M-2481.72-1395v135" stroke="#282c33" fill="none"/><use xlink:href="#B" transform="matrix(1,0,0,1,-2610,-1440) translate(0 28.322222222222223)"/><use xlink:href="#u" transform="matrix(1,0,0,1,-2615,-1392.5) translate(0 25.822222222222223)"/><use xlink:href="#h" transform="matrix(1,0,0,1,-2476.7201654241385,-1392.5) translate(0 25.822222222222223)"/><use xlink:href="#v" transform="matrix(1,0,0,1,-2615,-1347.5) translate(0 25.822222222222223)"/><use xlink:href="#z" transform="matrix(1,0,0,1,-2476.7201654241385,-1347.5) translate(0 25.822222222222223)"/><g><use xlink:href="#v" transform="matrix(1,0,0,1,-2615,-1302.5) translate(0 25.822222222222223)"/></g><g><use xlink:href="#A" transform="matrix(1,0,0,1,-2476.7201654241385,-1302.5) translate(0 25.822222222222223)"/></g><defs><path fill="#a9afb8" d="M230 0l2-204L168 0h-37L68-204 70 0H24v-248h70l56 185 57-185h69V0h-46" id="C"/><path fill="#a9afb8" d="M185-48c-13 30-37 53-82 52C43 2 14-33 14-96s30-98 90-98c62 0 83 45 84 108H66c0 31 8 55 39 56 18 0 30-7 34-22zm-45-69c5-46-57-63-70-21-2 6-4 13-4 21h74" id="D"/><path fill="#a9afb8" d="M88-194c31-1 46 15 58 34l-1-101h50l1 261h-48c-2-10 0-23-3-31C134-8 116 4 84 4 32 4 16-41 15-95c0-56 19-97 73-99zm17 164c33 0 40-30 41-66 1-37-9-64-41-64s-38 30-39 65c0 43 13 65 39 65" id="E"/><path fill="#a9afb8" d="M25-224v-37h50v37H25zM25 0v-190h50V0H25" id="F"/><path fill="#a9afb8" d="M190-63c-7 42-38 67-86 67-59 0-84-38-90-98-12-110 154-137 174-36l-49 2c-2-19-15-32-35-32-30 0-35 28-38 64-6 74 65 87 74 30" id="G"/><path fill="#a9afb8" d="M133-34C117-15 103 5 69 4 32 3 11-16 11-54c-1-60 55-63 116-61 1-26-3-47-28-47-18 1-26 9-28 27l-52-2c7-38 36-58 82-57s74 22 75 68l1 82c-1 14 12 18 25 15v27c-30 8-71 5-69-32zm-48 3c29 0 43-24 42-57-32 0-66-3-65 30 0 17 8 27 23 27" id="H"/><path fill="#a9afb8" d="M25 0v-261h50V0H25" id="I"/><g id="a"><use transform="matrix(0.0728395061728395,0,0,0.0728395061728395,0,0)" xlink:href="#C"/><use transform="matrix(0.0728395061728395,0,0,0.0728395061728395,21.77901234567901,0)" xlink:href="#D"/><use transform="matrix(0.0728395061728395,0,0,0.0728395061728395,36.34691358024691,0)" xlink:href="#E"/><use transform="matrix(0.0728395061728395,0,0,0.0728395061728395,52.29876543209876,0)" xlink:href="#F"/><use transform="matrix(0.0728395061728395,0,0,0.0728395061728395,59.582716049382704,0)" xlink:href="#G"/><use transform="matrix(0.0728395061728395,0,0,0.0728395061728395,74.15061728395061,0)" xlink:href="#H"/><use transform="matrix(0.0728395061728395,0,0,0.0728395061728395,88.7185185185185,0)" xlink:href="#I"/></g><path fill="#a9afb8" d="M67-125c0 53 21 87 73 88 37 1 54-22 65-47l45 17C233-25 199 4 140 4 58 4 20-42 15-125 8-235 124-281 211-232c18 10 29 29 36 50l-46 12c-8-25-30-41-62-41-52 0-71 34-72 86" id="J"/><path fill="#a9afb8" d="M135-194c87-1 58 113 63 194h-50c-7-57 23-157-34-157-59 0-34 97-39 157H25l-1-190h47c2 12-1 28 3 38 12-26 28-41 61-42" id="K"/><path fill="#a9afb8" d="M115-3C79 11 28 4 28-45v-112H4v-33h27l15-45h31v45h36v33H77v99c-1 23 16 31 38 25v30" id="L"/><path fill="#a9afb8" d="M135-150c-39-12-60 13-60 57V0H25l-1-190h47c2 13-1 29 3 40 6-28 27-53 61-41v41" id="M"/><g id="b"><use transform="matrix(0.0728395061728395,0,0,0.0728395061728395,0,0)" xlink:href="#J"/><use transform="matrix(0.0728395061728395,0,0,0.0728395061728395,18.86543209876543,0)" xlink:href="#D"/><use transform="matrix(0.0728395061728395,0,0,0.0728395061728395,33.43333333333333,0)" xlink:href="#K"/><use transform="matrix(0.0728395061728395,0,0,0.0728395061728395,49.38518518518518,0)" xlink:href="#L"/><use transform="matrix(0.0728395061728395,0,0,0.0728395061728395,58.05308641975308,0)" xlink:href="#D"/><use transform="matrix(0.0728395061728395,0,0,0.0728395061728395,72.62098765432098,0)" xlink:href="#M"/></g><path fill="#a9afb8" d="M153-248C145-148 188 4 80 4 36 3 13-21 6-62l32-5c4 25 16 42 43 43 27 0 39-20 39-49v-147H72v-28h81" id="N"/><path fill="#a9afb8" d="M100-194c62-1 85 37 85 99 1 63-27 99-86 99S16-35 15-95c0-66 28-99 85-99zM99-20c44 1 53-31 53-75 0-43-8-75-51-75s-53 32-53 75 10 74 51 75" id="O"/><path fill="#a9afb8" d="M114-163C36-179 61-72 57 0H25l-1-190h30c1 12-1 29 2 39 6-27 23-49 58-41v29" id="P"/><path fill="#a9afb8" d="M85-194c31 0 48 13 60 33l-1-100h32l1 261h-30c-2-10 0-23-3-31C134-8 116 4 85 4 32 4 16-35 15-94c0-66 23-100 70-100zm9 24c-40 0-46 34-46 75 0 40 6 74 45 74 42 0 51-32 51-76 0-42-9-74-50-73" id="Q"/><path fill="#a9afb8" d="M141-36C126-15 110 5 73 4 37 3 15-17 15-53c-1-64 63-63 125-63 3-35-9-54-41-54-24 1-41 7-42 31l-33-3c5-37 33-52 76-52 45 0 72 20 72 64v82c-1 20 7 32 28 27v20c-31 9-61-2-59-35zM48-53c0 20 12 33 32 33 41-3 63-29 60-74-43 2-92-5-92 41" id="R"/><path fill="#a9afb8" d="M117-194c89-4 53 116 60 194h-32v-121c0-31-8-49-39-48C34-167 62-67 57 0H25l-1-190h30c1 10-1 24 2 32 11-22 29-35 61-36" id="S"/><g id="c"><use transform="matrix(0.04248971193415638,0,0,0.04248971193415638,0,0)" xlink:href="#N"/><use transform="matrix(0.04248971193415638,0,0,0.04248971193415638,7.648148148148148,0)" xlink:href="#O"/><use transform="matrix(0.04248971193415638,0,0,0.04248971193415638,16.14609053497942,0)" xlink:href="#P"/><use transform="matrix(0.04248971193415638,0,0,0.04248971193415638,21.20236625514403,0)" xlink:href="#Q"/><use transform="matrix(0.04248971193415638,0,0,0.04248971193415638,29.7003086419753,0)" xlink:href="#R"/><use transform="matrix(0.04248971193415638,0,0,0.04248971193415638,38.19825102880658,0)" xlink:href="#S"/></g><path fill="#a9afb8" d="M233-177c-1 41-23 64-60 70L243 0h-38l-65-103H63V0H30v-248c88 3 205-21 203 71zM63-129c60-2 137 13 137-47 0-61-80-42-137-45v92" id="T"/><path fill="#a9afb8" d="M84 4C-5 8 30-112 23-190h32v120c0 31 7 50 39 49 72-2 45-101 50-169h31l1 190h-30c-1-10 1-25-2-33-11 22-28 36-60 37" id="U"/><path fill="#a9afb8" d="M24-231v-30h32v30H24zM24 0v-190h32V0H24" id="V"/><path fill="#a9afb8" d="M9 0v-24l116-142H16v-24h144v24L44-24h123V0H9" id="W"/><g id="d"><use transform="matrix(0.04248971193415638,0,0,0.04248971193415638,0,0)" xlink:href="#T"/><use transform="matrix(0.04248971193415638,0,0,0.04248971193415638,11.004835390946502,0)" xlink:href="#U"/><use transform="matrix(0.04248971193415638,0,0,0.04248971193415638,19.502777777777776,0)" xlink:href="#V"/><use transform="matrix(0.04248971193415638,0,0,0.04248971193415638,22.85946502057613,0)" xlink:href="#W"/></g><path fill="#a9afb8" d="M32 76v-337h29V76H32" id="X"/><use transform="matrix(0.04248971193415638,0,0,0.04248971193415638,0,0)" xlink:href="#X" id="e"/><path fill="#333" d="M119 0H84L31-248h34l41 218 126-218h36" id="Y"/><path fill="#333" d="M14 0l48-248h34L48 0H14" id="Z"/><path fill="#333" d="M194-120c59 52 2 134-86 124-53-6-90-18-98-63l31-7c8 30 29 43 70 43 46 0 84-17 71-62-32-43-135-20-137-98-3-89 178-90 191-16l-30 9c-8-48-127-53-127 5 0 53 81 35 115 65" id="aa"/><path fill="#333" d="M151-220L108 0H75l42-220H32l6-28h203l-5 28h-85" id="ab"/><g id="f"><use transform="matrix(0.08086419753086417,0,0,0.08086419753086417,0,0)" xlink:href="#Y"/><use transform="matrix(0.08086419753086417,0,0,0.08086419753086417,19.4074074074074,0)" xlink:href="#Z"/><use transform="matrix(0.08086419753086417,0,0,0.08086419753086417,27.49382716049382,0)" xlink:href="#aa"/><use transform="matrix(0.08086419753086417,0,0,0.08086419753086417,46.90123456790122,0)" xlink:href="#Z"/><use transform="matrix(0.08086419753086417,0,0,0.08086419753086417,54.98765432098764,0)" xlink:href="#ab"/></g><path d="M30-248c87 1 191-15 191 75 0 78-77 80-158 76V0H30v-248zm33 125c57 0 124 11 124-50 0-59-68-47-124-48v98" id="ac"/><path d="M194 0L95-120 63-95V0H30v-248h33v124l119-124h40L117-140 236 0h-42" id="ad"/><g id="g"><use transform="matrix(0.08086419753086417,0,0,0.08086419753086417,0,0)" xlink:href="#ac"/><use transform="matrix(0.08086419753086417,0,0,0.08086419753086417,19.4074074074074,0)" xlink:href="#ad"/></g><path fill="#333" d="M248-139C247-14 144 9 11 0l48-248c105-6 190 8 189 109zm-34 0c1-70-52-87-126-82L50-27c98 7 163-21 164-112" id="ae"/><g id="h"><use transform="matrix(0.08086419753086417,0,0,0.08086419753086417,0,0)" xlink:href="#Z"/><use transform="matrix(0.08086419753086417,0,0,0.08086419753086417,8.086419753086417,0)" xlink:href="#ae"/></g><path d="M100-194c63 0 86 42 84 106H49c0 40 14 67 53 68 26 1 43-12 49-29l28 8c-11 28-37 45-77 45C44 4 14-33 15-96c1-61 26-98 85-98zm52 81c6-60-76-77-97-28-3 7-6 17-6 28h103" id="af"/><path d="M179-190L93 31C79 59 56 82 12 73V49c39 6 53-20 64-50L1-190h34L92-34l54-156h33" id="ag"/><g id="i"><use transform="matrix(0.08086419753086417,0,0,0.08086419753086417,0,0)" xlink:href="#ad"/><use transform="matrix(0.08086419753086417,0,0,0.08086419753086417,19.4074074074074,0)" xlink:href="#af"/><use transform="matrix(0.08086419753086417,0,0,0.08086419753086417,35.58024691358024,0)" xlink:href="#ag"/></g><path fill="#333" d="M30-147c31-64 166-65 159 27C183-49 158 1 86 4 9 8 1-88 30-147zM88-20c53 0 68-48 68-100 0-31-11-51-44-50-52 1-68 46-68 97 0 32 13 53 44 53" id="ah"/><path fill="#333" d="M44-68c0 29 11 47 38 47 30 0 42-19 51-41l28 9C148-21 126 4 82 4 31 4 10-29 12-85c3-77 74-140 146-93 12 8 15 23 18 40l-31 5c-1-22-13-36-36-36-52 0-65 49-65 101" id="ai"/><path fill="#333" d="M51-54c-9 22 5 41 31 30L79-1C43 14 10-4 19-52l22-115H19l5-23h22l19-43h21l-9 43h35l-4 23H73" id="aj"/><path fill="#333" d="M66-151c12-25 30-51 66-40l-6 26C45-176 58-65 38 0H6l36-190h30" id="ak"/><g id="j"><use transform="matrix(0.08086419753086417,0,0,0.08086419753086417,0,0)" xlink:href="#ae"/><use transform="matrix(0.08086419753086417,0,0,0.08086419753086417,20.94382716049382,0)" xlink:href="#ah"/><use transform="matrix(0.08086419753086417,0,0,0.08086419753086417,37.11666666666666,0)" xlink:href="#ai"/><use transform="matrix(0.08086419753086417,0,0,0.08086419753086417,51.67222222222222,0)" xlink:href="#aj"/><use transform="matrix(0.08086419753086417,0,0,0.08086419753086417,59.758641975308635,0)" xlink:href="#ah"/><use transform="matrix(0.08086419753086417,0,0,0.08086419753086417,75.93148148148146,0)" xlink:href="#ak"/><use transform="matrix(0.08086419753086417,0,0,0.08086419753086417,85.5543209876543,0)" xlink:href="#Z"/><use transform="matrix(0.08086419753086417,0,0,0.08086419753086417,93.64074074074071,0)" xlink:href="#ae"/></g><path fill="#333" d="M238-179c0 84-86 86-175 82L45 0H11l48-248c82 0 179-12 179 69zm-34 1c0-53-64-42-116-43l-19 98c63 0 135 9 135-55" id="al"/><path fill="#333" d="M187 0l-14-72H61L19 0h-37l149-248h38L221 0h-34zm-19-99l-22-123L76-99h92" id="am"/><path fill="#333" d="M11 0l48-248h184l-5 28H87l-15 79h140l-5 27H67L50-27h158l-5 27H11" id="an"/><path fill="#333" d="M173 0L80-213 41 0H11l48-248h37l94 214 40-214h30L212 0h-39" id="ao"/><g id="k"><use transform="matrix(0.08086419753086417,0,0,0.08086419753086417,0,0)" xlink:href="#al"/><use transform="matrix(0.08086419753086417,0,0,0.08086419753086417,17.224074074074068,0)" xlink:href="#am"/><use transform="matrix(0.08086419753086417,0,0,0.08086419753086417,36.63148148148147,0)" xlink:href="#Z"/><use transform="matrix(0.08086419753086417,0,0,0.08086419753086417,44.71790123456789,0)" xlink:href="#ab"/><use transform="matrix(0.08086419753086417,0,0,0.08086419753086417,62.42716049382715,0)" xlink:href="#an"/><use transform="matrix(0.08086419753086417,0,0,0.08086419753086417,81.83456790123455,0)" xlink:href="#ao"/><use transform="matrix(0.08086419753086417,0,0,0.08086419753086417,102.77839506172838,0)" xlink:href="#ab"/><use transform="matrix(0.08086419753086417,0,0,0.08086419753086417,120.48765432098763,0)" xlink:href="#Z"/><use transform="matrix(0.08086419753086417,0,0,0.08086419753086417,128.57407407407405,0)" xlink:href="#ae"/></g><g id="l"><use transform="matrix(0.08086419753086417,0,0,0.08086419753086417,0,0)" xlink:href="#ae"/><use transform="matrix(0.08086419753086417,0,0,0.08086419753086417,20.94382716049382,0)" xlink:href="#am"/><use transform="matrix(0.08086419753086417,0,0,0.08086419753086417,38.16790123456789,0)" xlink:href="#ab"/><use transform="matrix(0.08086419753086417,0,0,0.08086419753086417,55.87716049382715,0)" xlink:href="#an"/></g><path d="M1222-777c17 480-206 763-650 777H169v-1456h411c408 9 627 269 642 679zm-190 4c3-312-149-522-447-525H361v1141h202c308 0 473-209 469-531v-85" id="ap"/><path d="M341 0H156v-1082h185V0zm-91-1264c-68 0-108-42-109-105 0-62 41-107 109-107s110 44 110 107-42 105-110 105" id="aq"/><path d="M693 0c-10-37-6-74-4-114C590-22 484 20 373 20 194 20 47-112 59-292c17-247 243-368 520-365l189 1c15-84 22-185-26-240-65-75-223-71-306-12-47 33-77 73-88 125l-182 1c29-208 221-321 452-321 215 0 378 144 342 364l-88 536c-5 65-10 126 7 186l-2 17H693zM280-192c64 73 206 62 294 10 51-30 96-69 133-120l39-223c-244-11-476 9-502 206-6 51 6 93 36 127" id="ar"/><path d="M123-184c-88-202-33-508 57-666 83-146 199-253 398-253 125 0 220 50 284 142l36-121h166L884-23c-30 256-228 459-511 450-159-5-303-84-369-189l103-111c65 97 152 146 259 149 189 4 305-120 337-288l20-96C600 22 394 67 238-34c-51-33-88-85-115-150zm344 48c108 2 201-50 279-159l85-497c-40-99-112-151-217-154-98-3-176 40-242 120-126 151-208 685 95 690" id="as"/><path d="M390-1083l-26 137c97-107 208-159 332-156 212 6 319 161 280 393L858 0H677l119-712c18-142-34-234-164-234-109 0-204 56-286 174L212 0H31l188-1082" id="at"/><path d="M368-1032c145-90 364-94 497 4 125 92 200 279 173 497-26 214-136 393-288 484-146 88-361 90-494-7C135-143 64-314 82-523c19-226 133-414 286-509zm19 191c-89 104-138 255-123 450 11 144 88 261 232 261 228 0 333-194 361-401 31-227-34-407-232-420-93-6-173 35-238 110" id="au"/><path d="M231-333c-1 124 89 201 217 201 122 0 240-56 253-161 9-75-30-131-123-158l-188-55c-159-55-234-145-230-272 6-193 214-324 421-324 206 0 374 135 365 339l-180-1c4-110-81-185-192-185-115 0-223 63-235 164-8 63 29 112 115 137 217 64 438 103 427 341C871-88 677 18 442 20 228 22 41-122 50-334" id="av"/><path d="M227 0H47l188-1082h180zm73-1444c36-38 112-44 152-6 39 38 38 117 0 155-36 37-114 43-153 5s-35-116 1-154" id="aw"/><g id="m"><use transform="matrix(0.014756944444444442,0,0,0.014756944444444442,0,0)" xlink:href="#ap"/><use transform="matrix(0.014756944444444442,0,0,0.014756944444444442,19.818576388888886,0)" xlink:href="#aq"/><use transform="matrix(0.014756944444444442,0,0,0.014756944444444442,27.15277777777777,0)" xlink:href="#ar"/><use transform="matrix(0.014756944444444442,0,0,0.014756944444444442,43.25260416666666,0)" xlink:href="#as"/><use transform="matrix(0.014756944444444442,0,0,0.014756944444444442,59.85416666666666,0)" xlink:href="#at"/><use transform="matrix(0.014756944444444442,0,0,0.014756944444444442,76.17534722222221,0)" xlink:href="#au"/><use transform="matrix(0.014756944444444442,0,0,0.014756944444444442,93.04253472222221,0)" xlink:href="#av"/><use transform="matrix(0.014756944444444442,0,0,0.014756944444444442,108.30121527777777,0)" xlink:href="#aw"/><use transform="matrix(0.014756944444444442,0,0,0.014756944444444442,115.56163194444444,0)" xlink:href="#av"/></g><g id="n"><use transform="matrix(0.08086419753086417,0,0,0.08086419753086417,0,0)" xlink:href="#ae"/><use transform="matrix(0.08086419753086417,0,0,0.08086419753086417,20.94382716049382,0)" xlink:href="#ah"/><use transform="matrix(0.08086419753086417,0,0,0.08086419753086417,37.11666666666666,0)" xlink:href="#ai"/><use transform="matrix(0.08086419753086417,0,0,0.08086419753086417,51.67222222222222,0)" xlink:href="#aj"/><use transform="matrix(0.08086419753086417,0,0,0.08086419753086417,59.758641975308635,0)" xlink:href="#ah"/><use transform="matrix(0.08086419753086417,0,0,0.08086419753086417,75.93148148148146,0)" xlink:href="#ak"/></g><g id="o"><use transform="matrix(0.05,0,0,0.05,0,0)" xlink:href="#ac"/><use transform="matrix(0.05,0,0,0.05,12,0)" xlink:href="#ad"/></g><g id="p"><use transform="matrix(0.05,0,0,0.05,0,0)" xlink:href="#ad"/><use transform="matrix(0.05,0,0,0.05,12,0)" xlink:href="#af"/><use transform="matrix(0.05,0,0,0.05,22,0)" xlink:href="#ag"/></g><path fill="#333" d="M222 0l43-216c-8 16-17 34-26 49L143 0h-22L81-216 41 0H11l48-248h42l38 208 116-208h45L252 0h-30" id="ax"/><g id="q"><use transform="matrix(0.08086419753086417,0,0,0.08086419753086417,0,0)" xlink:href="#ao"/><use transform="matrix(0.08086419753086417,0,0,0.08086419753086417,20.94382716049382,0)" xlink:href="#am"/><use transform="matrix(0.08086419753086417,0,0,0.08086419753086417,40.35123456790122,0)" xlink:href="#ax"/><use transform="matrix(0.08086419753086417,0,0,0.08086419753086417,64.52962962962961,0)" xlink:href="#an"/></g><path fill="#333" d="M67-162c32-53 139-36 121 50C175-51 163 2 97 4 68 4 52-11 42-31 38 6 28 39 22 75H-9l50-265h29c-1 10 0 20-3 28zm89 36c0-26-10-43-35-43-54 0-67 50-69 103-1 29 14 45 42 46 53 0 62-58 62-106" id="ay"/><path fill="#333" d="M111-194c62-3 86 47 72 106H45c-7 38 6 69 45 68 27-1 43-14 53-32l24 11C152-15 129 4 87 4 38 3 12-23 12-71c0-70 32-119 99-123zm44 81c14-66-71-72-95-28-4 8-8 17-11 28h106" id="az"/><path fill="#333" d="M50-231l6-30h32l-6 30H50zM6 0l37-190h31L37 0H6" id="aA"/><path fill="#333" d="M165-48c-4 18 1 34 23 27l-3 20c-29 8-62 0-52-35h-2C116-14 99 4 63 4 30 4 8-16 8-49c0-68 71-67 138-67 10-26 0-56-31-54-26 1-42 9-47 31l-32-5c8-67 160-71 144 15-5 28-9 54-15 81zM42-50c3 52 80 24 89-6 7-12 7-24 11-38-47 1-103-4-100 44" id="aB"/><path fill="#333" d="M6 0l50-261h32L37 0H6" id="aC"/><path fill="#333" d="M-8 0l5-24 140-142H31l5-24h145l-5 24L36-24h119l-5 24H-8" id="aD"/><path fill="#333" d="M67-158c22-48 132-52 116 29L158 0h-32l25-140c3-38-53-32-70-12C52-117 51-52 38 0H6l36-190h30" id="aE"/><g id="r"><use transform="matrix(0.08086419753086417,0,0,0.08086419753086417,0,0)" xlink:href="#aa"/><use transform="matrix(0.08086419753086417,0,0,0.08086419753086417,19.4074074074074,0)" xlink:href="#ay"/><use transform="matrix(0.08086419753086417,0,0,0.08086419753086417,35.58024691358024,0)" xlink:href="#az"/><use transform="matrix(0.08086419753086417,0,0,0.08086419753086417,51.75308641975308,0)" xlink:href="#ai"/><use transform="matrix(0.08086419753086417,0,0,0.08086419753086417,66.30864197530863,0)" xlink:href="#aA"/><use transform="matrix(0.08086419753086417,0,0,0.08086419753086417,72.6969135802469,0)" xlink:href="#aB"/><use transform="matrix(0.08086419753086417,0,0,0.08086419753086417,88.86975308641975,0)" xlink:href="#aC"/><use transform="matrix(0.08086419753086417,0,0,0.08086419753086417,95.25802469135802,0)" xlink:href="#aA"/><use transform="matrix(0.08086419753086417,0,0,0.08086419753086417,101.64629629629626,0)" xlink:href="#aD"/><use transform="matrix(0.08086419753086417,0,0,0.08086419753086417,116.20185185185181,0)" xlink:href="#aB"/><use transform="matrix(0.08086419753086417,0,0,0.08086419753086417,132.37469135802465,0)" xlink:href="#aj"/><use transform="matrix(0.08086419753086417,0,0,0.08086419753086417,140.46111111111105,0)" xlink:href="#aA"/><use transform="matrix(0.08086419753086417,0,0,0.08086419753086417,146.84938271604932,0)" xlink:href="#ah"/><use transform="matrix(0.08086419753086417,0,0,0.08086419753086417,163.02222222222215,0)" xlink:href="#aE"/></g><path fill="#333" d="M125-24c46 0 70-25 89-51l25 16C214-24 183 4 123 4 8 4-5-146 60-208c32-50 158-61 191-5 5 7 9 14 11 22l-32 10c-9-28-33-43-69-43-74 0-108 51-108 125 0 46 24 75 72 75" id="aF"/><path fill="#333" d="M-28 44V31h207v13H-28" id="aG"/><path fill="#333" d="M76-167L44 0H12l33-167H18l4-23h27c3-47 25-81 82-69l-4 24c-35-8-44 15-46 45h37l-5 23H76" id="aH"/><g id="s"><use transform="matrix(0.08086419753086417,0,0,0.08086419753086417,0,0)" xlink:href="#aF"/><use transform="matrix(0.08086419753086417,0,0,0.08086419753086417,20.94382716049382,0)" xlink:href="#ah"/><use transform="matrix(0.08086419753086417,0,0,0.08086419753086417,37.11666666666666,0)" xlink:href="#aE"/><use transform="matrix(0.08086419753086417,0,0,0.08086419753086417,53.289506172839495,0)" xlink:href="#aj"/><use transform="matrix(0.08086419753086417,0,0,0.08086419753086417,61.37592592592591,0)" xlink:href="#aB"/><use transform="matrix(0.08086419753086417,0,0,0.08086419753086417,77.54876543209875,0)" xlink:href="#aE"/><use transform="matrix(0.08086419753086417,0,0,0.08086419753086417,93.72160493827157,0)" xlink:href="#ai"/><use transform="matrix(0.08086419753086417,0,0,0.08086419753086417,108.27716049382713,0)" xlink:href="#aj"/><use transform="matrix(0.08086419753086417,0,0,0.08086419753086417,116.36358024691354,0)" xlink:href="#aG"/><use transform="matrix(0.08086419753086417,0,0,0.08086419753086417,132.53641975308636,0)" xlink:href="#Z"/><use transform="matrix(0.08086419753086417,0,0,0.08086419753086417,140.6228395061728,0)" xlink:href="#aE"/><use transform="matrix(0.08086419753086417,0,0,0.08086419753086417,156.79567901234563,0)" xlink:href="#aH"/><use transform="matrix(0.08086419753086417,0,0,0.08086419753086417,164.88209876543203,0)" xlink:href="#ah"/></g><path fill="#333" d="M55-144c13 50 104 24 104 88C159 21 15 23 1-39l26-10c6 40 102 42 102-4-13-50-104-23-104-87 0-71 143-71 148-8l-29 4c-5-35-85-37-89 0" id="aI"/><g id="t"><use transform="matrix(0.08086419753086417,0,0,0.08086419753086417,0,0)" xlink:href="#al"/><use transform="matrix(0.08086419753086417,0,0,0.08086419753086417,19.4074074074074,0)" xlink:href="#aB"/><use transform="matrix(0.08086419753086417,0,0,0.08086419753086417,35.58024691358024,0)" xlink:href="#aA"/><use transform="matrix(0.08086419753086417,0,0,0.08086419753086417,41.96851851851851,0)" xlink:href="#aj"/><use transform="matrix(0.08086419753086417,0,0,0.08086419753086417,50.054938271604925,0)" xlink:href="#az"/><use transform="matrix(0.08086419753086417,0,0,0.08086419753086417,66.22777777777776,0)" xlink:href="#aE"/><use transform="matrix(0.08086419753086417,0,0,0.08086419753086417,82.4006172839506,0)" xlink:href="#aj"/><use transform="matrix(0.08086419753086417,0,0,0.08086419753086417,90.48703703703701,0)" xlink:href="#aI"/></g><path fill="#333" d="M180 0L97-118 63-96 45 0H11l48-248h34L69-126c44-43 94-81 141-122h43L121-137 219 0h-39" id="aJ"/><g id="u"><use transform="matrix(0.08086419753086417,0,0,0.08086419753086417,0,0)" xlink:href="#al"/><use transform="matrix(0.08086419753086417,0,0,0.08086419753086417,19.4074074074074,0)" xlink:href="#aJ"/></g><path fill="#333" d="M138-103L118 0H85l20-103-68-145h35l54 119 98-119h38" id="aK"/><g id="v"><use transform="matrix(0.08086419753086417,0,0,0.08086419753086417,0,0)" xlink:href="#aJ"/><use transform="matrix(0.08086419753086417,0,0,0.08086419753086417,19.4074074074074,0)" xlink:href="#an"/><use transform="matrix(0.08086419753086417,0,0,0.08086419753086417,38.8148148148148,0)" xlink:href="#aK"/></g><path d="M798-1455c280-6 475 162 452 437-24 282-246 450-558 449l-346-1L247 0H59l253-1456zM373-727l324 1c202 2 344-111 366-291 21-169-84-279-246-280l-345-1" id="aL"/><path d="M509-1344l-46 262h197l-25 143H439L326-266c-10 74 15 129 84 126 22 0 51-3 88-10L484 1C371 33 244 25 190-60c-34-53-56-122-42-209l110-670H67l25-143h191l46-262h180" id="aM"/><path d="M267-488c-26 188 71 355 247 357 107 1 205-45 296-144l104 88C832-68 690 21 499 20 214 19 51-235 92-543c28-211 142-407 287-495 158-96 394-79 506 47 97 108 124 311 89 503H267zm509-376c-76-117-261-108-358-11-54 54-99 131-132 235l526 1c18-84 2-166-36-225" id="aN"/><path d="M1146 0H964L444-1130 248 0H59l253-1456h182l521 1135 197-1135h187" id="aO"/><path d="M388-1083l-23 121c91-96 200-143 329-140 138 2 239 67 273 174 101-119 221-177 359-174 217 3 334 162 296 391L1503 0h-180l118-713c18-149-38-232-178-234-141-2-262 104-283 228L857 0H675l120-712c18-144-45-231-178-233-113-3-202 49-269 154L211 0H30l188-1082" id="aP"/><g id="w"><use transform="matrix(0.014756944444444439,0,0,0.014756944444444439,0,0)" xlink:href="#aL"/><use transform="matrix(0.014756944444444439,0,0,0.014756944444444439,18.475694444444436,0)" xlink:href="#ar"/><use transform="matrix(0.014756944444444439,0,0,0.014756944444444439,34.575520833333314,0)" xlink:href="#aM"/><use transform="matrix(0.014756944444444439,0,0,0.014756944444444439,44.3003472222222,0)" xlink:href="#aw"/><use transform="matrix(0.014756944444444439,0,0,0.014756944444444439,51.560763888888864,0)" xlink:href="#aN"/><use transform="matrix(0.014756944444444439,0,0,0.014756944444444439,67.23263888888886,0)" xlink:href="#at"/><use transform="matrix(0.014756944444444439,0,0,0.014756944444444439,83.5538194444444,0)" xlink:href="#aM"/><use transform="matrix(0.014756944444444439,0,0,0.014756944444444439,93.27864583333329,0)" xlink:href="#aO"/><use transform="matrix(0.014756944444444439,0,0,0.014756944444444439,114.32204861111106,0)" xlink:href="#ar"/><use transform="matrix(0.014756944444444439,0,0,0.014756944444444439,130.42187499999994,0)" xlink:href="#aP"/><use transform="matrix(0.014756944444444439,0,0,0.014756944444444439,156.26128472222214,0)" xlink:href="#aN"/></g><path d="M1169-464C1124-185 892 29 575 20 229 9 88-284 127-654c28-268 101-490 247-638 124-125 272-187 447-184 282 5 447 200 452 489h-187c-12-217-93-327-273-332-126-3-229 46-315 141-126 140-178 379-192 636-12 223 75 401 278 405 238 4 341-122 403-324" id="aQ"/><path d="M326-201c75 91 241 91 337 15 51-40 86-91 102-154l171-1C897-129 721 20 480 20 176 20 48-242 89-567c26-210 129-382 279-471 164-98 412-83 528 50 66 75 102 166 102 279l-169-1c-1-136-82-241-213-241-267 0-370 265-356 565 4 78 28 139 66 185" id="aR"/><path d="M260 0H73l253-1456h187" id="aS"/><path d="M119 0l164-939H116l25-143h166c16-160 49-300 144-383 101-88 236-115 397-77l-22 151c-96-22-191-11-250 47-61 60-74 158-88 262h224l-25 143H463L300 0H119" id="aT"/><g id="x"><use transform="matrix(0.014756944444444442,0,0,0.014756944444444442,0,0)" xlink:href="#aQ"/><use transform="matrix(0.014756944444444442,0,0,0.014756944444444442,19.228298611111107,0)" xlink:href="#au"/><use transform="matrix(0.014756944444444442,0,0,0.014756944444444442,36.0954861111111,0)" xlink:href="#at"/><use transform="matrix(0.014756944444444442,0,0,0.014756944444444442,52.41666666666666,0)" xlink:href="#aM"/><use transform="matrix(0.014756944444444442,0,0,0.014756944444444442,62.14149305555555,0)" xlink:href="#ar"/><use transform="matrix(0.014756944444444442,0,0,0.014756944444444442,78.24131944444443,0)" xlink:href="#aR"/><use transform="matrix(0.014756944444444442,0,0,0.014756944444444442,93.73611111111109,0)" xlink:href="#aM"/><use transform="matrix(0.014756944444444442,0,0,0.014756944444444442,103.46093749999997,0)" xlink:href="#aS"/><use transform="matrix(0.014756944444444442,0,0,0.014756944444444442,111.57725694444441,0)" xlink:href="#at"/><use transform="matrix(0.014756944444444442,0,0,0.014756944444444442,127.89843749999999,0)" xlink:href="#aT"/><use transform="matrix(0.014756944444444442,0,0,0.014756944444444442,138.2282986111111,0)" xlink:href="#au"/></g><g id="y"><use transform="matrix(0.08086419753086417,0,0,0.08086419753086417,0,0)" xlink:href="#ae"/><use transform="matrix(0.08086419753086417,0,0,0.08086419753086417,20.94382716049382,0)" xlink:href="#aA"/><use transform="matrix(0.08086419753086417,0,0,0.08086419753086417,27.332098765432093,0)" xlink:href="#aI"/><use transform="matrix(0.08086419753086417,0,0,0.08086419753086417,41.88765432098764,0)" xlink:href="#az"/><use transform="matrix(0.08086419753086417,0,0,0.08086419753086417,58.06049382716048,0)" xlink:href="#aB"/><use transform="matrix(0.08086419753086417,0,0,0.08086419753086417,74.23333333333332,0)" xlink:href="#aI"/><use transform="matrix(0.08086419753086417,0,0,0.08086419753086417,88.78888888888886,0)" xlink:href="#az"/></g><path fill="#333" d="M248-111c6-24 9-61-24-58-72 9-57 108-77 169h-31l26-142c3-37-50-30-64-10C52-115 50-51 37 0H6l36-190h30c-1 10-6 24-4 32 13-43 101-52 105 5 13-22 29-41 61-41 90 0 28 129 23 194h-31" id="aU"/><g id="z"><use transform="matrix(0.08086419753086417,0,0,0.08086419753086417,0,0)" xlink:href="#ao"/><use transform="matrix(0.08086419753086417,0,0,0.08086419753086417,20.94382716049382,0)" xlink:href="#aB"/><use transform="matrix(0.08086419753086417,0,0,0.08086419753086417,37.11666666666666,0)" xlink:href="#aU"/><use transform="matrix(0.08086419753086417,0,0,0.08086419753086417,61.29506172839505,0)" xlink:href="#az"/></g><g id="A"><use transform="matrix(0.08086419753086417,0,0,0.08086419753086417,0,0)" xlink:href="#ae"/><use transform="matrix(0.08086419753086417,0,0,0.08086419753086417,20.94382716049382,0)" xlink:href="#az"/><use transform="matrix(0.08086419753086417,0,0,0.08086419753086417,37.11666666666666,0)" xlink:href="#aI"/><use transform="matrix(0.08086419753086417,0,0,0.08086419753086417,51.67222222222222,0)" xlink:href="#ai"/><use transform="matrix(0.08086419753086417,0,0,0.08086419753086417,66.22777777777776,0)" xlink:href="#ak"/><use transform="matrix(0.08086419753086417,0,0,0.08086419753086417,75.8506172839506,0)" xlink:href="#aA"/><use transform="matrix(0.08086419753086417,0,0,0.08086419753086417,82.23888888888887,0)" xlink:href="#ay"/><use transform="matrix(0.08086419753086417,0,0,0.08086419753086417,98.4117283950617,0)" xlink:href="#aj"/><use transform="matrix(0.08086419753086417,0,0,0.08086419753086417,106.49814814814812,0)" xlink:href="#aA"/><use transform="matrix(0.08086419753086417,0,0,0.08086419753086417,112.88641975308639,0)" xlink:href="#ah"/><use transform="matrix(0.08086419753086417,0,0,0.08086419753086417,129.05925925925922,0)" xlink:href="#aE"/></g><path fill="#333" d="M133-28C103 26-5 8 13-77c13-62 24-115 90-117 29-1 46 15 56 35l19-102h32L160 0h-30zM45-64c-2 27 10 43 35 43 54-1 69-50 69-103 0-29-15-46-42-46-53-1-58 58-62 106" id="aV"/><g id="B"><use transform="matrix(0.08086419753086417,0,0,0.08086419753086417,0,0)" xlink:href="#Y"/><use transform="matrix(0.08086419753086417,0,0,0.08086419753086417,18.841358024691353,0)" xlink:href="#aA"/><use transform="matrix(0.08086419753086417,0,0,0.08086419753086417,25.22962962962962,0)" xlink:href="#aI"/><use transform="matrix(0.08086419753086417,0,0,0.08086419753086417,39.78518518518517,0)" xlink:href="#aj"/><use transform="matrix(0.08086419753086417,0,0,0.08086419753086417,47.87160493827159,0)" xlink:href="#az"/><use transform="matrix(0.08086419753086417,0,0,0.08086419753086417,64.04444444444442,0)" xlink:href="#aV"/><use transform="matrix(0.08086419753086417,0,0,0.08086419753086417,80.21728395061726,0)" xlink:href="#ae"/><use transform="matrix(0.08086419753086417,0,0,0.08086419753086417,101.16111111111108,0)" xlink:href="#aA"/><use transform="matrix(0.08086419753086417,0,0,0.08086419753086417,107.54938271604935,0)" xlink:href="#aI"/><use transform="matrix(0.08086419753086417,0,0,0.08086419753086417,122.10493827160492,0)" xlink:href="#az"/><use transform="matrix(0.08086419753086417,0,0,0.08086419753086417,138.27777777777774,0)" xlink:href="#aB"/><use transform="matrix(0.08086419753086417,0,0,0.08086419753086417,154.45061728395058,0)" xlink:href="#aI"/><use transform="matrix(0.08086419753086417,0,0,0.08086419753086417,169.00617283950612,0)" xlink:href="#az"/></g></defs></g></svg>